<?xml version="1.0" encoding="utf-8"?>
<!-- Svg Vector Icons : http://www.onlinewebfonts.com/icon -->
<!DOCTYPE svg PUBLIC "-//W3C//DTD SVG 1.1//EN" "http://www.w3.org/Graphics/SVG/1.1/DTD/svg11.dtd">
<svg version="1.1" xmlns="http://www.w3.org/2000/svg" xmlns:xlink="http://www.w3.org/1999/xlink" x="0px" y="0px" viewBox="0 0 256 256" enable-background="new 0 0 256 256" xml:space="preserve">
<metadata> Svg Vector Icons : http://www.onlinewebfonts.com/icon </metadata>
<g><g><g><path fill="#DC3545" d="M99.4,10.7c-4.4,2-5.8,5.1-5.8,13v5.8H64H34.5v14.8v14.8H128h93.5V44.3V29.5H192h-29.5l-0.2-6.7c-0.2-7.3-0.7-8.7-4.4-11.4c-1.7-1.2-2.5-1.3-29.1-1.4C106.8,9.9,100.9,10,99.4,10.7z"/><path fill="#DC3545" d="M49.3,157.4V246H128h78.7v-88.6V68.9H128H49.3V157.4z M93.6,157.4v59h-9.8h-9.8v-59v-59h9.8h9.8V157.4z M137.8,157.4v59H128h-9.8v-59v-59h9.8h9.8V157.4z M182.1,157.4v59h-9.8h-9.8v-59v-59h9.8h9.8V157.4z"/></g></g></g>
</svg>