<?xml version="1.0" encoding="utf-8"?>
<!-- Svg Vector Icons : http://www.onlinewebfonts.com/icon -->
<!DOCTYPE svg PUBLIC "-//W3C//DTD SVG 1.1//EN" "http://www.w3.org/Graphics/SVG/1.1/DTD/svg11.dtd">
<svg version="1.1" xmlns="http://www.w3.org/2000/svg" xmlns:xlink="http://www.w3.org/1999/xlink" x="0px" y="0px" viewBox="0 0 256 256" enable-background="new 0 0 256 256" xml:space="preserve">
<metadata> Svg Vector Icons : http://www.onlinewebfonts.com/icon </metadata>
<g><g><g><path fill="#000000" d="M28,18.2c-10,1.3-15.8,7-17.5,17c-0.3,2-0.5,34.2-0.5,93.1c0,96.3,0,93.3,2.4,98.8c1.3,3,5.1,6.9,8.1,8.4c5.8,2.8,1.5,2.7,99.6,2.7s93.9,0.1,99.6-2.7c3-1.5,6.8-5.4,8.1-8.4c2.4-5.4,2.4-5,2.4-65.9v-57l-7.9,7.9l-7.9,7.9V170V220l-1.2,1.2l-1.2,1.2h-92h-92l-1.2-1.2l-1.2-1.2v-92V36l1.2-1.2l1.2-1.2H94h65.8l7.9-7.9l7.9-7.9l-73,0C62.3,17.9,28.8,18.1,28,18.2z"/><path fill="#000000" d="M218.5,18.5c-3.3,0.9-7.9,3.5-9.9,5.6l-1.8,1.8l15.8,15.7l15.7,15.7l2-2.2c5.6-6.3,7.3-15.2,4.4-22.7C240.6,22,228.8,15.7,218.5,18.5z"/><path fill="#000000" d="M143.6,84.8l-55,51.2l15.7,15.7l15.7,15.7l55.2-51.3l55.2-51.3l-15.6-15.6c-8.6-8.7-15.8-15.7-15.9-15.6C198.7,33.6,173.9,56.7,143.6,84.8z"/><path fill="#000000" d="M80.6,144.3c-0.9,2.5-15.4,46.4-15.3,46.5c0.1,0.1,46.6-15.4,46.8-15.6c0.1-0.1-6.8-7.2-15.5-15.9C86,148.7,80.8,143.8,80.6,144.3z"/></g></g></g>
</svg>